/* XPM */
static const char * loading_xpm[] = {
"16 16 66 1",
" 	c None",
".	c #FFFFFF",
"+	c #FEFEFE",
"@	c #F7F7F7",
"#	c #D9D9D9",
"$	c #E1E1E1",
"%	c #F4F4F4",
"&	c #E6E6E6",
"*	c #B4B4B4",
"=	c #FDFDFD",
"-	c #C3C3C3",
";	c #D3D3D3",
">	c #BFBFBF",
",	c #C6C6C6",
"'	c #DCDCDC",
")	c #C0C0C0",
"!	c #EEEEEE",
"~	c #B5B5B5",
"{	c #CCCCCC",
"]	c #B9B9B9",
"^	c #E4E4E4",
"/	c #BCBCBC",
"(	c #FBFBFB",
"_	c #B0B0B0",
":	c #FAFAFA",
"<	c #F3F3F3",
"[	c #C9C9C9",
"}	c #A9A9A9",
"|	c #AFAFAF",
"1	c #DEDEDE",
"2	c #EFEFEF",
"3	c #B7B7B7",
"4	c #E7E7E7",
"5	c #B6B6B6",
"6	c #EDEDED",
"7	c #F9F9F9",
"8	c #BBBBBB",
"9	c #D8D8D8",
"0	c #FCFCFC",
"a	c #D6D6D6",
"b	c #ACACAC",
"c	c #E9E9E9",
"d	c #F5F5F5",
"e	c #B2B2B2",
"f	c #E5E5E5",
"g	c #AAAAAA",
"h	c #A2A2A2",
"i	c #E3E3E3",
"j	c #BABABA",
"k	c #ADADAD",
"l	c #CACACA",
"m	c #F1F1F1",
"n	c #A7A7A7",
"o	c #D7D7D7",
"p	c #AEAEAE",
"q	c #ECECEC",
"r	c #A8A8A8",
"s	c #D1D1D1",
"t	c #B1B1B1",
"u	c #DADADA",
"v	c #BEBEBE",
"w	c #C2C2C2",
"x	c #C5C5C5",
"y	c #EBEBEB",
"z	c #E2E2E2",
"A	c #F2F2F2",
" .+.......@#+.. ",
".+$%.....+&*=...",
".+-;+....=>,+...",
".+')=...+!~@....",
".+{]=...=>#+....",
".+^/=...(_(=:=+.",
"..<~=.+=-)([}|1+",
"..23==4@56789>50",
"..7~@abc/d+00<e@",
"..75fgh>~=+ijj_!",
"..7_35kjl+.m8no=",
"..7|pqrgs++=@|~7",
"..0be:t}(+<u@@p(",
"..mv!=l/=+;~twxy",
"..=z++AA+.+({-(+",
" ..+........==. "};
