/* XPM */
static const char * standard_xpm[] = {
"16 16 91 1",
" 	c None",
".	c #FFFFFF",
"+	c #FEFEFE",
"@	c #EDEDED",
"#	c #A0A0A0",
"$	c #FDFDFD",
"%	c #B5B5B5",
"&	c #E4E4E4",
"*	c #C0C0C0",
"=	c #444444",
"-	c #FCFCFC",
";	c #6A6A6A",
">	c #909090",
",	c #FBFBFB",
"'	c #5E5E5E",
")	c #707070",
"!	c #A7A7A7",
"~	c #616161",
"{	c #D6D6D6",
"]	c #454545",
"^	c #7F7F7F",
"/	c #505050",
"(	c #5F5F5F",
"_	c #A1A1A1",
":	c #BBBBBB",
"<	c #585858",
"[	c #F6F6F6",
"}	c #393939",
"|	c #F7F7F7",
"1	c #F3F3F3",
"2	c #E2E2E2",
"3	c #464646",
"4	c #626262",
"5	c #787878",
"6	c #282828",
"7	c #373737",
"8	c #AEAEAE",
"9	c #D9D9D9",
"0	c #4A4A4A",
"a	c #C4C4C4",
"b	c #484848",
"c	c #D3D3D3",
"d	c #F1F1F1",
"e	c #555555",
"f	c #9E9E9E",
"g	c #494949",
"h	c #F0F0F0",
"i	c #EBEBEB",
"j	c #9A9A9A",
"k	c #2F2F2F",
"l	c #C8C8C8",
"m	c #575757",
"n	c #E7E7E7",
"o	c #F9F9F9",
"p	c #F8F8F8",
"q	c #E3E3E3",
"r	c #3E3E3E",
"s	c #F2F2F2",
"t	c #C1C1C1",
"u	c #2A2A2A",
"v	c #151515",
"w	c #BABABA",
"x	c #535353",
"y	c #DCDCDC",
"z	c #313131",
"A	c #7B7B7B",
"B	c #232323",
"C	c #9B9B9B",
"D	c #363636",
"E	c #333333",
"F	c #D1D1D1",
"G	c #252525",
"H	c #8D8D8D",
"I	c #2E2E2E",
"J	c #3F3F3F",
"K	c #F4F4F4",
"L	c #3C3C3C",
"M	c #272727",
"N	c #A4A4A4",
"O	c #ECECEC",
"P	c #5B5B5B",
"Q	c #7A7A7A",
"R	c #929292",
"S	c #3B3B3B",
"T	c #656565",
"U	c #6D6D6D",
"V	c #B6B6B6",
"W	c #E0E0E0",
"X	c #DFDFDF",
"Y	c #959595",
"Z	c #6F6F6F",
" .+.......@#$.. ",
".+%&.....+*=-...",
".$;>$....,')$...",
".+!~-...+{]@....",
".$^/-...-(_$....",
".+:<-...[}|-1,+.",
"..23-.+-;4|5678+",
"..90,-a@bcdef'g,",
"..h]ijklmn+opqrh",
"..sgtuv(3,+wxx}y",
"..s}/gzxA$.yeBC-",
"..1DEFGuH$+-iD]1",
"..oIJKLM|+qNOOEp",
"..iP{-Qm-$R3STUc",
"..$V$+WX+.$pYZp+",
" ..+........$$. "};
